# xmcd
#
# Track frame offsets:
#	300
#	20154
#	40166
#	56555
#	71549
#	91423
#	111406
#	127830
#
# Disc length: 1905 seconds
#
# Revision: 0
# Processed by: cddbd v1.5.2PL0 Copyright (c) Steve Scherf et al.
# Submitted via: audiograbber 1.83.01
#
DISCID=6c076d08
DTITLE=Garth Brooks - Gath Brooks
DYEAR=1900
DGENRE=Karaoke
TTITLE0=To Make You Feel My Love
TTITLE1=Friends in Low Places
TTITLE2=Shameless
TTITLE3=The Dance
TTITLE4=To Make You Feel My Love (vocals)
TTITLE5=Friends in Low Places (vocals)
TTITLE6=Shameless (vocals)
TTITLE7=The Dance (vocals)
EXTD=
EXTT0=
EXTT1=
EXTT2=
EXTT3=
EXTT4=
EXTT5=
EXTT6=
EXTT7=
PLAYORDER=
